<svg xmlns="http://www.w3.org/2000/svg" xmlns:xlink="http://www.w3.org/1999/xlink" width="400" zoomAndPan="magnify" viewBox="0 0 300 299.999988" height="400" preserveAspectRatio="xMidYMid meet" version="1.0"><path fill="#ffffff" d="M 295.453125 150 C 295.453125 152.378906 295.394531 154.757812 295.277344 157.136719 C 295.164062 159.515625 294.988281 161.886719 294.753906 164.257812 C 294.519531 166.625 294.230469 168.988281 293.878906 171.34375 C 293.53125 173.699219 293.125 176.042969 292.660156 178.375 C 292.195312 180.710938 291.671875 183.035156 291.09375 185.34375 C 290.515625 187.652344 289.882812 189.945312 289.191406 192.222656 C 288.5 194.5 287.753906 196.761719 286.953125 199.003906 C 286.148438 201.242188 285.292969 203.464844 284.382812 205.664062 C 283.472656 207.863281 282.507812 210.039062 281.488281 212.191406 C 280.472656 214.339844 279.402344 216.46875 278.28125 218.566406 C 277.15625 220.667969 275.984375 222.738281 274.761719 224.777344 C 273.535156 226.820312 272.261719 228.832031 270.941406 230.808594 C 269.617188 232.789062 268.25 234.734375 266.832031 236.648438 C 265.410156 238.558594 263.949219 240.433594 262.4375 242.273438 C 260.925781 244.117188 259.375 245.917969 257.773438 247.679688 C 256.175781 249.445312 254.535156 251.167969 252.851562 252.851562 C 251.167969 254.535156 249.445312 256.175781 247.679688 257.773438 C 245.917969 259.375 244.117188 260.925781 242.273438 262.4375 C 240.433594 263.949219 238.558594 265.410156 236.648438 266.832031 C 234.734375 268.25 232.789062 269.617188 230.808594 270.941406 C 228.832031 272.261719 226.820312 273.535156 224.777344 274.761719 C 222.738281 275.984375 220.667969 277.15625 218.566406 278.28125 C 216.46875 279.402344 214.339844 280.472656 212.191406 281.488281 C 210.039062 282.507812 207.863281 283.472656 205.664062 284.382812 C 203.464844 285.292969 201.242188 286.148438 199.003906 286.953125 C 196.761719 287.753906 194.5 288.5 192.222656 289.191406 C 189.945312 289.882812 187.652344 290.515625 185.34375 291.09375 C 183.035156 291.671875 180.710938 292.195312 178.375 292.660156 C 176.042969 293.125 173.699219 293.53125 171.34375 293.878906 C 168.988281 294.230469 166.625 294.519531 164.257812 294.753906 C 161.886719 294.988281 159.515625 295.164062 157.136719 295.277344 C 154.757812 295.394531 152.378906 295.453125 150 295.453125 C 147.621094 295.453125 145.242188 295.394531 142.863281 295.277344 C 140.484375 295.164062 138.113281 294.988281 135.742188 294.753906 C 133.375 294.519531 131.011719 294.230469 128.65625 293.878906 C 126.300781 293.53125 123.957031 293.125 121.625 292.660156 C 119.289062 292.195312 116.964844 291.671875 114.65625 291.09375 C 112.347656 290.515625 110.054688 289.882812 107.777344 289.191406 C 105.5 288.5 103.238281 287.753906 100.996094 286.953125 C 98.757812 286.148438 96.535156 285.292969 94.335938 284.382812 C 92.136719 283.472656 89.960938 282.507812 87.808594 281.488281 C 85.660156 280.472656 83.53125 279.402344 81.433594 278.28125 C 79.332031 277.15625 77.261719 275.984375 75.222656 274.761719 C 73.179688 273.535156 71.167969 272.261719 69.191406 270.941406 C 67.210938 269.617188 65.265625 268.25 63.351562 266.832031 C 61.441406 265.410156 59.566406 263.949219 57.722656 262.4375 C 55.882812 260.925781 54.082031 259.375 52.320312 257.773438 C 50.554688 256.175781 48.832031 254.535156 47.148438 252.851562 C 45.464844 251.167969 43.824219 249.445312 42.226562 247.679688 C 40.625 245.917969 39.074219 244.117188 37.5625 242.273438 C 36.050781 240.433594 34.585938 238.558594 33.167969 236.648438 C 31.75 234.734375 30.382812 232.789062 29.058594 230.808594 C 27.738281 228.832031 26.464844 226.820312 25.238281 224.777344 C 24.015625 222.738281 22.84375 220.667969 21.71875 218.566406 C 20.597656 216.46875 19.527344 214.339844 18.511719 212.191406 C 17.492188 210.039062 16.527344 207.863281 15.617188 205.664062 C 14.707031 203.464844 13.851562 201.242188 13.046875 199.003906 C 12.246094 196.761719 11.5 194.5 10.808594 192.222656 C 10.117188 189.945312 9.484375 187.652344 8.90625 185.34375 C 8.324219 183.035156 7.804688 180.710938 7.339844 178.375 C 6.875 176.042969 6.46875 173.699219 6.121094 171.34375 C 5.769531 168.988281 5.480469 166.625 5.246094 164.257812 C 5.011719 161.886719 4.835938 159.515625 4.71875 157.136719 C 4.605469 154.757812 4.546875 152.378906 4.546875 150 C 4.546875 147.621094 4.605469 145.242188 4.71875 142.863281 C 4.835938 140.484375 5.011719 138.113281 5.246094 135.742188 C 5.480469 133.375 5.769531 131.011719 6.121094 128.65625 C 6.46875 126.300781 6.875 123.957031 7.339844 121.625 C 7.804688 119.289062 8.324219 116.964844 8.90625 114.65625 C 9.484375 112.347656 10.117188 110.054688 10.808594 107.777344 C 11.5 105.5 12.246094 103.238281 13.046875 100.996094 C 13.851562 98.757812 14.707031 96.535156 15.617188 94.335938 C 16.527344 92.136719 17.492188 89.960938 18.511719 87.808594 C 19.527344 85.660156 20.597656 83.53125 21.71875 81.433594 C 22.84375 79.332031 24.015625 77.261719 25.238281 75.222656 C 26.464844 73.179688 27.738281 71.167969 29.058594 69.191406 C 30.382812 67.210938 31.75 65.265625 33.167969 63.351562 C 34.585938 61.441406 36.050781 59.566406 37.5625 57.722656 C 39.074219 55.882812 40.625 54.082031 42.226562 52.320312 C 43.824219 50.554688 45.464844 48.832031 47.148438 47.148438 C 48.832031 45.464844 50.554688 43.824219 52.320312 42.226562 C 54.082031 40.625 55.882812 39.070312 57.722656 37.5625 C 59.566406 36.050781 61.441406 34.585938 63.351562 33.167969 C 65.265625 31.75 67.210938 30.382812 69.191406 29.058594 C 71.167969 27.738281 73.179688 26.464844 75.222656 25.238281 C 77.261719 24.015625 79.332031 22.84375 81.433594 21.71875 C 83.53125 20.597656 85.660156 19.527344 87.808594 18.511719 C 89.960938 17.492188 92.136719 16.527344 94.335938 15.617188 C 96.535156 14.707031 98.757812 13.851562 100.996094 13.046875 C 103.238281 12.246094 105.5 11.5 107.777344 10.808594 C 110.054688 10.117188 112.347656 9.484375 114.65625 8.90625 C 116.964844 8.324219 119.289062 7.804688 121.625 7.339844 C 123.957031 6.875 126.300781 6.46875 128.65625 6.121094 C 131.011719 5.769531 133.375 5.480469 135.742188 5.246094 C 138.113281 5.011719 140.484375 4.835938 142.863281 4.71875 C 145.242188 4.605469 147.621094 4.546875 150 4.546875 C 152.378906 4.546875 154.757812 4.605469 157.136719 4.71875 C 159.515625 4.835938 161.886719 5.011719 164.257812 5.246094 C 166.625 5.480469 168.988281 5.769531 171.34375 6.121094 C 173.699219 6.46875 176.042969 6.875 178.375 7.339844 C 180.710938 7.804688 183.035156 8.324219 185.34375 8.90625 C 187.652344 9.484375 189.945312 10.117188 192.222656 10.808594 C 194.5 11.5 196.761719 12.246094 199.003906 13.046875 C 201.242188 13.851562 203.464844 14.707031 205.664062 15.617188 C 207.863281 16.527344 210.039062 17.492188 212.191406 18.511719 C 214.339844 19.527344 216.46875 20.597656 218.566406 21.71875 C 220.667969 22.84375 222.738281 24.015625 224.777344 25.238281 C 226.820312 26.464844 228.832031 27.738281 230.808594 29.058594 C 232.789062 30.382812 234.734375 31.75 236.648438 33.167969 C 238.558594 34.585938 240.433594 36.050781 242.273438 37.5625 C 244.117188 39.070312 245.917969 40.625 247.679688 42.226562 C 249.445312 43.824219 251.167969 45.464844 252.851562 47.148438 C 254.535156 48.832031 256.175781 50.554688 257.773438 52.320312 C 259.375 54.082031 260.925781 55.882812 262.4375 57.722656 C 263.949219 59.566406 265.410156 61.441406 266.832031 63.351562 C 268.25 65.265625 269.617188 67.210938 270.941406 69.191406 C 272.261719 71.167969 273.535156 73.179688 274.761719 75.222656 C 275.984375 77.261719 277.15625 79.332031 278.28125 81.433594 C 279.402344 83.53125 280.472656 85.660156 281.488281 87.808594 C 282.507812 89.960938 283.472656 92.136719 284.382812 94.335938 C 285.292969 96.535156 286.148438 98.757812 286.953125 100.996094 C 287.753906 103.238281 288.5 105.5 289.191406 107.777344 C 289.882812 110.054688 290.515625 112.347656 291.09375 114.65625 C 291.671875 116.964844 292.195312 119.289062 292.660156 121.625 C 293.125 123.957031 293.53125 126.300781 293.878906 128.65625 C 294.230469 131.011719 294.519531 133.375 294.753906 135.742188 C 294.988281 138.113281 295.164062 140.484375 295.277344 142.863281 C 295.394531 145.242188 295.453125 147.621094 295.453125 150 Z M 295.453125 150 " fill-opacity="1" fill-rule="nonzero"/><path fill="#f7f8f7" d="M 150 300 C 67.289062 300 0 232.707031 0 150 C 0 67.289062 67.289062 0 150 0 C 232.707031 0 300 67.289062 300 150 C 300 232.707031 232.707031 300 150 300 Z M 150 9.089844 C 72.300781 9.089844 9.089844 72.300781 9.089844 150 C 9.089844 227.699219 72.300781 290.910156 150 290.910156 C 227.699219 290.910156 290.910156 227.699219 290.910156 150 C 290.910156 72.300781 227.699219 9.089844 150 9.089844 Z M 150 9.089844 " fill-opacity="1" fill-rule="nonzero"/><path fill="#fa0644" d="M 137.953125 206.730469 L 193.359375 149.199219 L 137.84375 93.269531 L 124.929688 106.089844 L 167.933594 149.402344 L 124.832031 194.125 Z M 137.953125 206.730469 " fill-opacity="1" fill-rule="nonzero"/></svg>